# xmcd
#
# Track frame offsets: 
#        150
#        14561
#        39358
#        56608
#        69977
#        91464
#        119101
#        138106
#        153144
#        167283
#        191938
#        205749
#        222728
#        232758
#        244772
#        249252
#        251036
#        255958
#        261380
#
# Disc length: 3781 seconds
#
# Revision: 3
# Processed by: cddbd v1.5.1PL2 Copyright (c) Steve Scherf et al.
# Submitted via: ExactAudioCopy v0.95a3
#
DISCID=080ec313
DTITLE=Chris Thomas King - The Roots
DYEAR=2004
DGENRE=Blues
TTITLE0=Hard Time Killing Floor
TTITLE1=Cypress Grove
TTITLE2=John Law Burned Down The Liquor Sto'
TTITLE3=O Brother, Where Art Thou?
TTITLE4=Come On In My Kitchen
TTITLE5=Watermelon Man
TTITLE6=Trouble Soon Will Be Over
TTITLE7=Dark Clouds
TTITLE8=If I had Possession Over Judgment Day
TTITLE9=Death Letter Blues
TTITLE10=Sinking Feelin'
TTITLE11=Canned Heat Blues
TTITLE12=Southern Chicks Blues
TTITLE13=Rock Island Line
TTITLE14=Midnight Special
TTITLE15=Martha´s Blues
TTITLE16=Cotton Fields
TTITLE17=CC Rider
TTITLE18=Raining Angels
EXTD=
EXTT0=
EXTT1=
EXTT2=
EXTT3=
EXTT4=
EXTT5=
EXTT6=
EXTT7=
EXTT8=
EXTT9=
EXTT10=
EXTT11=
EXTT12=
EXTT13=
EXTT14=
EXTT15=
EXTT16=
EXTT17=
EXTT18=
PLAYORDER=
